<svg width="256" height="256" viewBox="0 0 256 256" fill="none" xmlns="http://www.w3.org/2000/svg">
<rect width="256" height="256" rx="32" fill="#00C981"/>
<path d="M72.9858 71.734C71.4024 80.3478 71.4828 84.5451 73.5142 90.7661" stroke="white" stroke-width="8" stroke-linecap="round" stroke-linejoin="round"/>
<path d="M72.8721 160C71.2886 168.614 71.3691 172.811 73.4004 179.032" stroke="white" stroke-width="8" stroke-linecap="round" stroke-linejoin="round"/>
<path d="M55.8035 56.6689C56.6121 55.8535 58.4669 54.6332 61.9292 53.37C65.2686 52.1516 69.535 51.0959 74.5639 50.2522C84.6134 48.5661 96.9731 47.8463 109.483 48.0272C121.98 48.2078 134.341 49.2832 144.362 51.0728C149.379 51.9687 153.658 53.0169 157.007 54.1578C160.524 55.3558 162.347 56.4357 163.044 57.0473C163.909 57.807 164.991 59.4269 165.813 62.5773C166.62 65.6698 167.007 69.5954 167 74.1224C166.986 83.1731 165.41 93.3725 163.774 101.472C162.91 105.746 158.991 109 153.977 109H63.9684C59.0801 109 55.3045 105.921 54.3998 101.883C52.6685 94.1558 51.0097 84.3588 51 75.399C50.9898 65.9644 52.8241 59.6733 55.8035 56.6689Z" stroke="white" stroke-width="16"/>
<path d="M161.495 201.7C159.27 204.643 153.591 207.851 143.862 210.108C134.566 212.264 123.121 213.199 111.474 212.965C99.8414 212.731 88.3697 211.339 79.0625 209.039C74.4082 207.89 70.4576 206.553 67.3647 205.111C64.1813 203.628 62.3869 202.254 61.5407 201.28C60.1919 199.726 58.7076 196.675 57.5016 191.718C56.3348 186.921 55.603 181.089 55.2207 174.701C54.4569 161.935 55.1355 147.839 55.9792 137.186C56.3844 132.069 60.7434 128 66.3189 128L152.975 128C158.116 128 162.191 131.44 163.013 135.991C164.832 146.065 166.806 159.847 166.987 172.779C167.077 179.244 166.714 185.278 165.748 190.417C164.765 195.642 163.263 199.362 161.495 201.7Z" stroke="white" stroke-width="16"/>
<path d="M61 51.2996C61 51.2996 70.4362 41.8219 88.2898 38.2912C113.099 33.3851 146.839 33.088 176.113 43.4947C205.388 53.9013 214.011 77.8425 194 102.5C184.076 114.728 161 108.5 161 108.5" stroke="white" stroke-width="16" stroke-linecap="round" stroke-linejoin="round"/>
<path d="M149 209C149 209 190.855 203.068 204.274 185C219.154 164.965 215.803 143.577 200.274 125C193.929 117.409 179.5 110.5 179.5 110.5" stroke="white" stroke-width="16" stroke-linecap="round" stroke-linejoin="round"/>
</svg>
