<svg width="22" height="24" viewBox="0 0 22 24" fill="none" xmlns="http://www.w3.org/2000/svg">
<path d="M13.4843 20.4C14.5223 20.4 15.0707 21.6288 14.3783 22.4016C13.9285 22.9049 13.3774 23.3075 12.7611 23.583C12.1448 23.8585 11.4773 24.0006 10.8023 24C10.1272 24.0006 9.45972 23.8585 8.84344 23.583C8.22717 23.3075 7.67608 22.9049 7.22628 22.4016C6.56388 21.6624 7.03668 20.5068 7.98708 20.4084L8.11908 20.4012L13.4843 20.4Z" fill="#00C981"/>
<path d="M10.8023 0C12.4319 0 13.8095 1.0836 14.2523 2.5692L14.3075 2.7744L14.3171 2.826C15.6399 3.57228 16.7672 4.62132 17.6065 5.8872C18.4459 7.15307 18.9734 8.59977 19.1459 10.1088L19.1795 10.4532L19.2023 10.8V14.3172L19.2275 14.4804C19.3918 15.3646 19.8811 16.1553 20.5991 16.6968L20.7995 16.8372L20.9939 16.956C22.0259 17.5404 21.6659 19.0752 20.5415 19.1928L20.4023 19.2H1.20228C-0.0313195 19.2 -0.462119 17.5632 0.61068 16.956C1.06792 16.6972 1.46298 16.3415 1.76813 15.9139C2.07328 15.4862 2.28113 14.9969 2.37708 14.4804L2.40228 14.3088L2.40348 10.7448C2.47665 9.17745 2.93287 7.65193 3.73222 6.30176C4.53157 4.95159 5.64968 3.81793 6.98868 3L7.28628 2.8248L7.29828 2.7732C7.46803 2.05563 7.85382 1.4074 8.40358 0.916004C8.95335 0.424603 9.64063 0.113681 10.3727 0.0251999L10.5911 0.00479994L10.8023 0Z" fill="#00C981"/>
<path d="M13.4843 20.4C14.5223 20.4 15.0707 21.6288 14.3783 22.4016C13.9285 22.9049 13.3774 23.3075 12.7611 23.583C12.1448 23.8585 11.4773 24.0006 10.8023 24C10.1272 24.0006 9.45972 23.8585 8.84344 23.583C8.22717 23.3075 7.67608 22.9049 7.22628 22.4016C6.56388 21.6624 7.03668 20.5068 7.98708 20.4084L8.11908 20.4012L13.4843 20.4Z" stroke="#00C981"/>
<path d="M10.8023 0C12.4319 0 13.8095 1.0836 14.2523 2.5692L14.3075 2.7744L14.3171 2.826C15.6399 3.57228 16.7672 4.62132 17.6065 5.8872C18.4459 7.15307 18.9734 8.59977 19.1459 10.1088L19.1795 10.4532L19.2023 10.8V14.3172L19.2275 14.4804C19.3918 15.3646 19.8811 16.1553 20.5991 16.6968L20.7995 16.8372L20.9939 16.956C22.0259 17.5404 21.6659 19.0752 20.5415 19.1928L20.4023 19.2H1.20228C-0.0313195 19.2 -0.462119 17.5632 0.61068 16.956C1.06792 16.6972 1.46298 16.3415 1.76813 15.9139C2.07328 15.4862 2.28113 14.9969 2.37708 14.4804L2.40228 14.3088L2.40348 10.7448C2.47665 9.17745 2.93287 7.65193 3.73222 6.30176C4.53157 4.95159 5.64968 3.81793 6.98868 3L7.28628 2.8248L7.29828 2.7732C7.46803 2.05563 7.85382 1.4074 8.40358 0.916004C8.95335 0.424603 9.64063 0.113681 10.3727 0.0251999L10.5911 0.00479994L10.8023 0Z" stroke="#00C981"/>
</svg>
