<svg width="137" height="120" viewBox="0 0 137 120" fill="none" xmlns="http://www.w3.org/2000/svg">
<path d="M104.5 2L105.5 10L99 5L104.5 2Z" fill="#EEEEEE"/>
<path d="M110.5 10.5L113.5 1L120.5 5L110.5 10.5Z" fill="#EEEEEE"/>
<path d="M113 14L123.5 11L125.5 17L113 14Z" fill="#EEEEEE"/>
<path d="M104.5 2L105.5 10L99 5L104.5 2Z" stroke="#AAAAAA"/>
<path d="M110.5 10.5L113.5 1L120.5 5L110.5 10.5Z" stroke="#AAAAAA"/>
<path d="M113 14L123.5 11L125.5 17L113 14Z" stroke="#AAAAAA"/>
<path d="M16 50L1 30.5L54 12L68.5 32.5L83.5 12L136 30.5L121 50L136 71.5L121 76.3571V102.5L68.5 119L16 102.5V76.3113L1 71.5L16 50Z" fill="#EEEEEE"/>
<path d="M16 50L1 30.5L54 12L68.5 32.5M16 50L68.5 32.5M16 50L1 71.5L16 76.3113M16 50L68.5 67M68.5 32.5L83.5 12L136 30.5L121 50M68.5 32.5L121 50M121 50L68.5 67M121 50L136 71.5L121 76.3571M68.5 67L83.5 88.5L121 76.3571M68.5 67L54 88.5L16 76.3113M68.5 67V119M16 76.3113V102.5L68.5 119M68.5 119L121 102.5V76.3571" stroke="#AAAAAA"/>
<mask id="mask0_1879_5739" style="mask-type:alpha" maskUnits="userSpaceOnUse" x="0" y="11" width="137" height="109">
<path d="M16 50L1 30.5L54 12L68.5 32.5L83.5 12L136 30.5L121 50L136 71.5L121 76.3571V102.5L68.5 119L16 102.5V76.3113L1 71.5L16 50Z" fill="#D9D9D9"/>
<path d="M16 50L1 30.5L54 12L68.5 32.5M16 50L68.5 32.5M16 50L1 71.5L16 76.3113M16 50L68.5 67M68.5 32.5L83.5 12L136 30.5L121 50M68.5 32.5L121 50M121 50L68.5 67M121 50L136 71.5L121 76.3571M68.5 67L83.5 88.5L121 76.3571M68.5 67L54 88.5L16 76.3113M68.5 67V119M16 76.3113V102.5L68.5 119M68.5 119L121 102.5V76.3571" stroke="black"/>
</mask>
<g mask="url(#mask0_1879_5739)">
<path d="M68.5 32.5L16 50L68.5 67L121 50L68.5 32.5Z" fill="#AAAAAA" stroke="#AAAAAA"/>
</g>
</svg>
