<svg width="24" height="22" viewBox="0 0 24 22" fill="none" xmlns="http://www.w3.org/2000/svg">
<path d="M5.9875 0.198803C7.0491 0.0179216 8.13776 0.0775899 9.17323 0.373409C10.2087 0.669228 11.1646 1.19366 11.9704 1.90804L12.0148 1.94762L12.0556 1.91164C12.8247 1.23669 13.7289 0.733518 14.7078 0.435676C15.6868 0.137834 16.718 0.0521734 17.7326 0.184409L18.0277 0.22759C19.3067 0.448422 20.5022 1.01103 21.4875 1.85582C22.4729 2.70062 23.2114 3.79617 23.6249 5.02644C24.0385 6.25672 24.1116 7.57593 23.8366 8.84437C23.5616 10.1128 22.9486 11.2833 22.0627 12.2318L21.8468 12.4537L21.7892 12.5029L12.8532 21.3537C12.647 21.5578 12.3738 21.6803 12.0842 21.6983C11.7947 21.7164 11.5083 21.6289 11.2783 21.4521L11.1656 21.3537L2.17801 12.4513C1.2259 11.5249 0.54878 10.3531 0.221638 9.06555C-0.105504 7.77803 -0.0699011 6.42509 0.324504 5.15656C0.71891 3.88803 1.45673 2.75342 2.45624 1.87838C3.45576 1.00334 4.67796 0.422018 5.9875 0.198803Z" fill="#FF004D"/>
</svg>
