<svg width="161" height="140" viewBox="0 0 161 140" fill="none" xmlns="http://www.w3.org/2000/svg">
<path d="M95.9328 80.6259C80.5688 104.665 48.6888 111.656 24.7269 96.2409C0.764894 80.8259 -6.20511 48.8413 9.15899 24.802C24.523 0.7628 56.403 -6.2284 80.3648 9.1869C104.327 24.6022 111.297 56.5869 95.9328 80.6259Z" fill="#EEEEEE" stroke="#AAAAAA"/>
<path d="M84.3348 73.3079C73.0188 91.0129 49.5391 96.1619 31.891 84.8079C14.243 73.4549 9.10957 49.8982 20.4253 32.1932C31.7409 14.4882 55.2206 9.3393 72.8688 20.6927C90.5168 32.046 95.6498 55.6029 84.3348 73.3079Z" fill="#EEEEEE" stroke="#AAAAAA"/>
<path d="M159.9 112.776L103.479 76.4788L95.0657 89.6421L151.487 125.94L159.9 112.776Z" fill="#EEEEEE" stroke="#AAAAAA"/>
<path d="M110.541 77.8708L101.265 71.9028L90.1269 89.3293L99.4038 95.2973L110.541 77.8708Z" fill="#EEEEEE" stroke="#AAAAAA"/>
<path d="M37.0423 57.4829C36.879 58.9219 35.585 59.9539 34.1544 59.7909C32.7239 59.6279 31.6939 58.3319 31.8572 56.8929C32.0204 55.4539 33.3145 54.4218 34.7451 54.5848C36.1756 54.7478 37.2055 56.0439 37.0423 57.4829Z" fill="#AAAAAA" stroke="#AAAAAA"/>
<path d="M73.7738 61.6739C73.6108 63.1129 72.3168 64.1439 70.8858 63.9809C69.4548 63.8189 68.4258 62.5219 68.5888 61.0829C68.7518 59.6439 70.0458 58.6119 71.4768 58.7749C72.9068 58.9379 73.9368 60.2349 73.7738 61.6739Z" fill="#AAAAAA" stroke="#AAAAAA"/>
<path d="M55.4898 61.1579C55.3265 62.5969 54.0325 63.6289 52.6019 63.4659C51.1714 63.3029 50.1414 62.0059 50.3047 60.5669C50.468 59.1279 51.762 58.0959 53.1926 58.2589C54.6231 58.4219 55.653 59.7189 55.4898 61.1579Z" fill="#AAAAAA" stroke="#AAAAAA"/>
<path d="M70.2348 49.9301C69.3828 57.4399 61.6507 62.8419 52.8288 61.8369C44.0068 60.8319 37.6821 53.8279 38.5341 46.3183C39.3861 38.8087 47.1182 33.4067 55.9401 34.4119C64.7621 35.417 71.0868 42.4204 70.2348 49.9301Z" fill="#EEEEEE" stroke="#AAAAAA"/>
<path d="M88.1498 56.7689C88.0298 57.8269 87.1158 58.8659 85.2668 59.7879C83.4408 60.6989 80.8328 61.4279 77.6108 61.9309C71.1718 62.9349 62.3977 63.0159 52.8195 61.9249C43.2414 60.8329 34.709 58.7799 28.66 56.3529C25.6321 55.1379 23.2539 53.8399 21.6789 52.5416C20.084 51.2269 19.4252 50.0094 19.5453 48.9508C19.6654 47.8922 20.58 46.854 22.4286 45.9317C24.2542 45.0209 26.8624 44.2914 30.0851 43.7888C36.5232 42.7848 45.2977 42.7036 54.8759 43.7951C64.4541 44.8866 72.9868 46.94 79.0358 49.367C82.0628 50.5819 84.4418 51.8796 86.0168 53.178C87.6118 54.4927 88.2698 55.7099 88.1498 56.7689Z" fill="#EEEEEE" stroke="#AAAAAA"/>
<path d="M74.6098 57.3629C74.5908 57.5309 74.4928 57.7299 74.2328 57.9549C73.9708 58.1819 73.5718 58.4089 73.0248 58.6219C71.9318 59.0459 70.3488 59.3759 68.3738 59.5849C64.431 60.0019 59.034 59.9269 53.1227 59.2539C47.2115 58.5799 41.9354 57.4379 38.1869 56.1449C36.3088 55.4969 34.8405 54.8193 33.8704 54.1592C33.3848 53.8289 33.0469 53.5181 32.8421 53.2376C32.6395 52.9601 32.5887 52.744 32.6078 52.5759C32.6268 52.4079 32.7247 52.2087 32.9844 51.9838C33.2467 51.7566 33.6456 51.5298 34.1927 51.3171C35.2859 50.8922 36.8684 50.5625 38.8438 50.3535C42.7863 49.9365 48.1833 50.0114 54.0946 50.6851C60.0058 51.3588 65.2819 52.5002 69.0308 53.7937C70.9088 54.4418 72.3768 55.1189 73.3468 55.7789C73.8328 56.1099 74.1708 56.4199 74.3748 56.7009C74.5778 56.9789 74.6288 57.1949 74.6098 57.3629Z" fill="#AAAAAA" stroke="#AAAAAA"/>
<path d="M56.7157 46.5152C56.5726 47.7798 55.4157 48.6973 54.1193 48.5493C52.823 48.4012 51.9006 47.2462 52.0437 45.9816C52.1868 44.7171 53.3438 43.7995 54.6401 43.9476C55.9365 44.0957 56.8588 45.2507 56.7157 46.5152Z" fill="#EEEEEE" stroke="#AAAAAA"/>
<path d="M73.0988 49.9977C72.9518 51.2932 71.7868 52.2221 70.4978 52.0748C69.2078 51.9276 68.2798 50.7596 68.4268 49.4641C68.5728 48.1687 69.7388 47.2398 71.0278 47.387C72.3168 47.5343 73.2448 48.7023 73.0988 49.9977Z" fill="#EEEEEE" stroke="#AAAAAA"/>
<path d="M39.5427 46.1697C39.396 47.4652 38.2306 48.3941 36.9414 48.2468C35.6522 48.0996 34.724 46.9316 34.8706 45.6361C35.0173 44.3407 36.1827 43.4118 37.4719 43.559C38.7611 43.7063 39.6893 44.8743 39.5427 46.1697Z" fill="#EEEEEE" stroke="#AAAAAA"/>
<path d="M85.3248 56.4069C85.1818 57.6719 84.0248 58.5889 82.7288 58.4409C81.4318 58.2929 80.5098 57.1379 80.6528 55.8739C80.7958 54.6091 81.9528 53.6916 83.2488 53.8396C84.5458 53.9877 85.4678 55.1429 85.3248 56.4069Z" fill="#EEEEEE" stroke="#AAAAAA"/>
<path d="M27.0524 49.7597C26.9093 51.0242 25.7523 51.9418 24.456 51.7937C23.1596 51.6457 22.2373 50.4906 22.3804 49.2261C22.5235 47.9615 23.6805 47.044 24.9768 47.192C26.2732 47.3401 27.1955 48.4951 27.0524 49.7597Z" fill="#EEEEEE" stroke="#AAAAAA"/>
<path d="M121.348 60.2159L116.124 60.9759L116.032 60.9949C115.892 61.0319 115.764 61.1059 115.662 61.2089C115.559 61.3119 115.486 61.4399 115.45 61.5809C115.413 61.7219 115.414 61.8699 115.453 62.0099C115.492 62.1499 115.567 62.2769 115.671 62.3779L119.456 66.0739L118.564 71.2949L118.553 71.3849C118.544 71.5309 118.574 71.6759 118.64 71.8059C118.706 71.9349 118.805 72.0449 118.927 72.1239C119.049 72.2029 119.189 72.2479 119.334 72.2549C119.479 72.2609 119.623 72.2289 119.752 72.1609L124.424 69.6959L129.086 72.1609L129.168 72.1989C129.303 72.2519 129.45 72.2679 129.593 72.2459C129.737 72.2239 129.872 72.1629 129.984 72.0709C130.097 71.9799 130.183 71.8589 130.234 71.7229C130.285 71.5859 130.299 71.4389 130.275 71.2949L129.381 66.0739L133.168 62.3769L133.231 62.3069C133.323 62.1949 133.383 62.0599 133.405 61.9159C133.427 61.7729 133.411 61.6259 133.358 61.4909C133.306 61.3549 133.218 61.2369 133.105 61.1459C132.992 61.0559 132.856 60.9969 132.713 60.9769L127.489 60.2159L125.154 55.4679C125.086 55.3299 124.981 55.2139 124.852 55.1329C124.722 55.0519 124.572 55.0089 124.419 55.0089C124.266 55.0089 124.116 55.0519 123.987 55.1329C123.857 55.2139 123.752 55.3299 123.685 55.4679L121.348 60.2159Z" fill="#AAAAAA" stroke="#AAAAAA" stroke-linecap="round" stroke-linejoin="round"/>
<path d="M67.7148 108.941L54.6547 110.84L54.4234 110.888C54.0732 110.981 53.754 111.166 53.4983 111.423C53.2426 111.681 53.0596 112.002 52.968 112.353C52.8764 112.705 52.8795 113.075 52.977 113.425C53.0744 113.775 53.2627 114.093 53.5227 114.346L62.9844 123.586L60.7531 136.638L60.7264 136.864C60.705 137.227 60.7802 137.59 60.9444 137.915C61.1085 138.239 61.3557 138.514 61.6606 138.712C61.9655 138.909 62.3172 139.021 62.6797 139.037C63.0421 139.053 63.4024 138.972 63.7234 138.803L75.4038 132.641L87.0588 138.803L87.2628 138.897C87.6008 139.031 87.9678 139.072 88.3268 139.016C88.6858 138.96 89.0238 138.81 89.3058 138.58C89.5868 138.35 89.8028 138.049 89.9298 137.707C90.0578 137.366 90.0928 136.997 90.0308 136.638L87.7978 123.586L97.2628 114.344L97.4228 114.17C97.6508 113.888 97.8008 113.55 97.8568 113.192C97.9118 112.833 97.8718 112.466 97.7408 112.128C97.6088 111.789 97.3898 111.492 97.1068 111.267C96.8228 111.041 96.4848 110.894 96.1268 110.842L83.0668 108.941L77.2278 97.0699C77.0588 96.7259 76.7978 96.4359 76.4728 96.2339C76.1488 96.0309 75.7738 95.9239 75.3918 95.9239C75.0098 95.9239 74.6348 96.0309 74.3108 96.2339C73.9858 96.4359 73.7248 96.7259 73.5558 97.0699L67.7148 108.941Z" fill="#AAAAAA" stroke="#AAAAAA" stroke-linecap="round" stroke-linejoin="round"/>
</svg>
