<svg width="230" height="186" viewBox="0 0 230 186" fill="none" xmlns="http://www.w3.org/2000/svg">
<path d="M49.9363 52.0455H59.2454C63.3875 52.0455 66.7454 55.4033 66.7454 59.5455V185.5H42.4363V59.5455C42.4363 55.4033 45.7941 52.0455 49.9363 52.0455Z" fill="#AAAAAA" stroke="#AAAAAA"/>
<path d="M84.7363 95.5455H94.0454C98.1876 95.5455 101.545 98.9033 101.545 103.045V185.5H77.2363V103.045C77.2363 98.9033 80.5942 95.5455 84.7363 95.5455Z" fill="#AAAAAA" stroke="#AAAAAA"/>
<path d="M119.536 142.209H129.636C133.779 142.209 137.136 145.567 137.136 149.709V185.5H112.036V149.709C112.036 145.567 115.394 142.209 119.536 142.209Z" fill="#AAAAAA" stroke="#AAAAAA"/>
<path d="M154.336 76.5637H164.436C168.579 76.5637 171.936 79.9215 171.936 84.0637V185.5H146.836V84.0637C146.836 79.9215 150.194 76.5637 154.336 76.5637Z" fill="#AAAAAA" stroke="#AAAAAA"/>
<line x1="19" y1="185.5" x2="193" y2="185.5" stroke="#AAAAAA"/>
<path fill-rule="evenodd" clip-rule="evenodd" d="M35.3617 138.929C70.0637 161.254 116.233 151.129 138.483 116.316C160.734 81.5019 150.64 35.1811 115.937 12.8564C81.2355 -9.46828 35.0664 0.656483 12.816 35.4704C-9.43456 70.2845 0.659515 116.605 35.3617 138.929ZM46.7365 122.372C72.2948 138.815 106.298 131.358 122.687 105.717C139.073 80.0768 131.639 45.9613 106.081 29.5193C80.5228 13.0771 46.5192 20.5338 30.1317 46.1745C13.7441 71.8152 21.1784 105.93 46.7365 122.372Z" fill="#444444"/>
<path d="M35.3617 138.929L35.6322 138.509L35.6322 138.509L35.3617 138.929ZM115.937 12.8564L115.667 13.2769L115.667 13.2769L115.937 12.8564ZM12.816 35.4704L13.2373 35.7397L13.2373 35.7397L12.816 35.4704ZM122.687 105.717L123.108 105.987L123.108 105.987L122.687 105.717ZM46.7365 122.372L47.0071 121.951L47.007 121.951L46.7365 122.372ZM106.081 29.5193L106.352 29.0988L106.352 29.0988L106.081 29.5193ZM30.1317 46.1745L30.553 46.4438L30.553 46.4438L30.1317 46.1745ZM138.062 116.046C115.96 150.627 70.101 160.683 35.6322 138.509L35.0912 139.35C70.0264 161.824 116.505 151.631 138.905 116.585L138.062 116.046ZM115.667 13.2769C150.137 35.4522 160.164 81.4643 138.062 116.046L138.905 116.585C161.303 81.5395 151.142 34.91 116.208 12.4359L115.667 13.2769ZM13.2373 35.7397C35.339 1.15839 81.1983 -8.89773 115.667 13.2769L116.208 12.4359C81.2728 -10.0388 34.7938 0.154574 12.3947 35.2012L13.2373 35.7397ZM35.6322 138.509C1.1623 116.334 -8.86519 70.3221 13.2373 35.7397L12.3947 35.2012C-10.0039 70.2469 0.15673 116.876 35.0912 139.35L35.6322 138.509ZM122.265 105.448C106.026 130.856 72.3321 138.244 47.0071 121.951L46.466 122.792C72.2575 139.386 106.571 131.86 123.108 105.987L122.265 105.448ZM105.811 29.9398C131.137 46.2324 138.504 80.0392 122.265 105.448L123.108 105.987C139.642 80.1144 132.142 45.6903 106.352 29.0988L105.811 29.9398ZM30.553 46.4438C46.7918 21.0357 80.4856 13.6477 105.811 29.9398L106.352 29.0988C80.5601 12.5066 46.2465 20.0319 29.7104 45.9052L30.553 46.4438ZM47.007 121.951C21.6812 105.659 14.3135 71.8528 30.553 46.4438L29.7104 45.9052C13.1748 71.7776 20.6756 106.201 46.466 122.792L47.007 121.951Z" fill="#AAAAAA"/>
<path d="M229.122 163.567L147.411 111L135.227 130.063L216.938 182.63L229.122 163.567Z" fill="#444444" stroke="#AAAAAA"/>
<path d="M157.64 112.326L144.205 103.683L128.075 128.92L141.51 137.563L157.64 112.326Z" fill="#444444" stroke="#AAAAAA"/>
</svg>
