<svg width="261" height="141" viewBox="0 0 261 141" fill="none" xmlns="http://www.w3.org/2000/svg">
<rect x="142.5" y="70.5" width="7" height="70" fill="black" stroke="#AAAAAA"/>
<rect x="133.809" y="64.0273" width="24.9636" height="6.63636" fill="black" stroke="#AAAAAA"/>
<mask id="path-3-inside-1_1648_4991" fill="white">
<path fill-rule="evenodd" clip-rule="evenodd" d="M185.809 0H98.5635V64.9091H164.618H186H207V21.3818H206.999C207 21.3182 207 21.2546 207 21.1909C207 9.55117 197.615 0.103307 186 0.000841419V0H185.809Z"/>
</mask>
<path fill-rule="evenodd" clip-rule="evenodd" d="M185.809 0H98.5635V64.9091H164.618H186H207V21.3818H206.999C207 21.3182 207 21.2546 207 21.1909C207 9.55117 197.615 0.103307 186 0.000841419V0H185.809Z" fill="black"/>
<path d="M98.5635 0V-1H97.5635V0H98.5635ZM98.5635 64.9091H97.5635V65.9091H98.5635V64.9091ZM207 64.9091V65.9091H208V64.9091H207ZM207 21.3818H208V20.3818H207V21.3818ZM206.999 21.3818L205.999 21.3731L205.99 22.3818H206.999V21.3818ZM186 0.000841419H185V0.992059L185.991 1.0008L186 0.000841419ZM186 0H187V-1H186V0ZM98.5635 1H185.809V-1H98.5635V1ZM99.5635 64.9091V0H97.5635V64.9091H99.5635ZM164.618 63.9091H98.5635V65.9091H164.618V63.9091ZM164.618 65.9091H186V63.9091H164.618V65.9091ZM186 65.9091H207V63.9091H186V65.9091ZM208 64.9091V21.3818H206V64.9091H208ZM207 20.3818H206.999V22.3818H207V20.3818ZM207.999 21.3906C208 21.3241 208 21.2576 208 21.1909H206C206 21.2517 206 21.3124 205.999 21.3731L207.999 21.3906ZM208 21.1909C208 9.00184 198.173 -0.891817 186.009 -0.99912L185.991 1.0008C197.058 1.09843 206 10.1005 206 21.1909H208ZM185 0V0.000841419H187V0H185ZM185.809 1H186V-1H185.809V1Z" fill="#AAAAAA" mask="url(#path-3-inside-1_1648_4991)"/>
<mask id="mask0_1648_4991" style="mask-type:alpha" maskUnits="userSpaceOnUse" x="79" y="0" width="43" height="65">
<path d="M121.354 21.3774L121.349 21.8818H121.354V64.4091H79.9727V21.8818H79.9779L79.9735 21.3774C79.9729 21.3153 79.9727 21.2532 79.9727 21.1909C79.9727 9.76364 89.2363 0.5 100.664 0.5C112.091 0.5 121.354 9.76364 121.354 21.1909C121.354 21.2532 121.354 21.3153 121.354 21.3774Z" fill="#D9D9D9" stroke="black"/>
</mask>
<g mask="url(#mask0_1648_4991)">
<path d="M121.354 21.3774L121.349 21.8818H121.354V64.4091H79.9727V21.8818H79.9779L79.9735 21.3774C79.9729 21.3153 79.9727 21.2532 79.9727 21.1909C79.9727 9.76364 89.2363 0.5 100.664 0.5C112.091 0.5 121.354 9.76364 121.354 21.1909C121.354 21.2532 121.354 21.3153 121.354 21.3774Z" fill="black" stroke="#AAAAAA"/>
<path d="M132.808 20.9956L132.804 21.5H132.809V64.0272H91.4271V21.5H91.4324L91.4279 20.9956C91.4274 20.9335 91.4271 20.8713 91.4271 20.8091C91.4271 9.3818 100.691 0.118164 112.118 0.118164C123.545 0.118164 132.809 9.3818 132.809 20.8091C132.809 20.8713 132.809 20.9335 132.808 20.9956Z" fill="#AAAAAA" stroke="#AAAAAA"/>
</g>
<path d="M79.9738 108.059L79.9782 107.555H79.9729V65.0275H121.355L121.355 107.555H121.349L121.354 108.059C121.354 108.121 121.355 108.183 121.355 108.246C121.355 119.673 112.091 128.937 100.664 128.937C89.2365 128.937 79.9729 119.673 79.9729 108.246C79.9729 108.183 79.9732 108.121 79.9738 108.059Z" fill="black" stroke="#AAAAAA"/>
<path d="M85.3908 27.6818C85.3908 27.6818 53.6425 18.0378 46.2545 31.5C41.9502 39.3431 41.2589 49.0636 46.2545 54.4091C54.1703 62.8795 64.0359 57.6626 67.4454 46.5818C71.2635 34.1727 64.8628 21 50.4545 21C28.8817 21 21.4363 46.5818 21.4363 46.5818" stroke="#AAAAAA"/>
<path d="M1.8474 75.0364C5.19529 67.1081 20.5565 59 20.5565 59C20.5565 59 19.9546 71.5743 17.502 77.9C14.5268 85.5735 5.09286 95.0818 5.09286 95.0818C5.09286 95.0818 -1.23753 82.3419 1.8474 75.0364Z" fill="black"/>
<path d="M20.5565 59C20.5565 59 5.19529 67.1081 1.8474 75.0364C-1.23753 82.3419 5.09286 95.0818 5.09286 95.0818C5.09286 95.0818 14.5268 85.5735 17.502 77.9C19.9546 71.5743 20.5565 59 20.5565 59ZM20.5565 59L8.63636 77.9" stroke="#AAAAAA"/>
</svg>
