<svg width="149" height="168" viewBox="0 0 149 168" fill="none" xmlns="http://www.w3.org/2000/svg">
<path d="M1 30.5073L51.9577 1L96.8696 26.8836L148 56.2183V164.412L144.372 167L92.3784 137.838L45.7391 164.412L1.34548 139.391L1 30.5073Z" fill="#EEEEEE"/>
<path d="M1 30.5073L51.9577 1L96.8696 26.8836M1 30.5073L45.5664 56.2183M1 30.5073L1.34548 139.391L45.7391 164.412M96.8696 26.8836L92.3784 29.4516M96.8696 26.8836L148 56.2183M45.5664 56.2183L45.7391 164.412M45.5664 56.2183L92.3784 29.4516M45.7391 164.412L92.3784 137.838L144.372 167M92.3784 133.006L49.5394 157.854V107.985M92.3784 133.006V71.5759M92.3784 133.006L49.5394 107.985M92.3784 71.5759L49.5394 96.7692V107.985M92.3784 71.5759V67.262M92.3784 29.4516V33.9584M92.3784 29.4516L144.372 58.4615M92.3784 33.9584V67.262M92.3784 33.9584L63.8766 50.2609M92.3784 67.262L49.5394 91.9376V58.4615L63.8766 50.2609M92.3784 67.262L63.8766 50.2609M144.372 58.4615L148 56.2183M144.372 58.4615V167M148 56.2183V164.412L144.372 167M96.3513 135.767V105.052L100.324 107.336M96.3513 135.767L139.881 160.96V158.458V155.956M96.3513 135.767L100.324 133.006M139.881 150.952V130.073L100.324 107.336M139.881 150.952V152.678M139.881 150.952L100.467 128.175M139.881 152.678L98.0787 128.175V126.794L100.467 128.175M139.881 152.678V154.317V155.956M100.324 107.336L100.467 128.175M100.324 130.073V133.006M100.324 133.006L139.881 155.956M96.5241 101.083V70.368L100.497 72.6516M96.5241 101.083L140.054 126.277V123.774V121.272M96.5241 101.083L100.497 98.3223M140.054 116.268V95.3888L100.497 72.6516M140.054 116.268V117.994M140.054 116.268L100.64 93.4906M140.054 117.994L98.2515 93.4906V92.1102L100.64 93.4906M140.054 117.994V119.633V121.272M100.497 72.6516L100.64 93.4906M100.497 95.3888V98.3223M100.497 98.3223L140.054 121.272M96.3513 65.8815V35.1663L100.324 37.45M96.3513 65.8815L139.881 91.0748V88.5728V86.0707M96.3513 65.8815L100.324 63.1206M139.881 81.0665V60.1871L100.324 37.45M139.881 81.0665V82.7921M139.881 81.0665L100.467 58.289M139.881 82.7921L98.0787 58.289V56.9085L100.467 58.289M139.881 82.7921V84.4314V86.0707M100.324 37.45L100.467 58.289M100.324 60.1871V63.1206M100.324 63.1206L139.881 86.0707" stroke="#AAAAAA"/>
<path d="M49.5393 157.854L92.3783 133.006L49.5393 107.985V157.854Z" fill="#AAAAAA"/>
<path d="M49.5393 91.9376V58.4615L63.8766 50.2609L92.3783 67.2619L49.5393 91.9376Z" fill="#AAAAAA"/>
</svg>
